<svg width="179" height="226" viewBox="0 0 179 226" fill="none" xmlns="http://www.w3.org/2000/svg">
<g clip-path="url(#clip0_0_9467)">
<path fill-rule="evenodd" clip-rule="evenodd" d="M-82.3176 265.144C-104.824 262.396 -128.624 252.57 -138.818 232.486C-150.332 209.814 -140.897 183.15 -136.817 158.265C-129.825 115.556 -141.252 68.2287 -173.37 38.3396C-186.823 25.7906 -203.108 16.8524 -219.392 7.91426C-232.866 0.516342 -246.354 -6.86375 -258.301 -16.395C-282.581 -35.8336 -299.345 -62.9611 -305.707 -93.1072C-308.972 -108.958 -309.038 -126.252 -300.865 -140.129C-289.448 -159.555 -265.197 -167.423 -242.609 -170.722C-174.866 -180.549 -104.341 -162.622 -45.1107 -127.802C14.1197 -92.9813 62.6745 -42.1318 101.173 14.3765C114.19 33.4975 126.369 53.799 130.94 76.3388C135.512 98.8786 131.344 124.097 115.209 140.368C87.8714 167.807 37.7122 161.225 10.7872 188.955C-4.93903 205.113 -3.34213 227.584 -15.3848 244.614C-29.3577 264.18 -60.0942 267.844 -82.3037 265.126" fill="#FFF0F0"/>
<mask id="mask0_0_9467" style="mask-type:luminance" maskUnits="userSpaceOnUse" x="83" y="101" width="61" height="55">
<path d="M143.882 101.047L83.043 101L83.0002 155.925L143.84 155.972L143.882 101.047Z" fill="white"/>
</mask>
<g mask="url(#mask0_0_9467)">
<mask id="mask1_0_9467" style="mask-type:luminance" maskUnits="userSpaceOnUse" x="86" y="101" width="48" height="55">
<path d="M133.628 101.718L86.46 101.681L86.4183 155.249L133.586 155.286L133.628 101.718Z" fill="white"/>
</mask>
<g mask="url(#mask1_0_9467)">
<path fill-rule="evenodd" clip-rule="evenodd" d="M96.8143 119.449L96.196 132.986L96.6078 138.9L96.7273 141.325L97.0525 142.913L98.1669 145.745L99.7355 147.696L100.966 149.61L103.018 151.11L104.378 151.954L107.736 153.396L111.422 154.035L114.146 154.833L117.582 154.434L120.875 154.163L122.645 153.26L125.561 152.356L127.19 151.453L128.703 149.839L130.744 147.105L131.545 144.481L132.827 141.111L132.638 138.694L132.746 133.033L132.882 126.553L131.982 121.305L131.573 117.132L130.402 116.916L118.22 116.444L102.485 116.865L98.7773 117.666L97.3619 118.195L96.5533 119.125" fill="#F0FBFF"/>
<path d="M97.0427 119.416C97.0688 123.008 96.1327 135.789 97.0178 140.976C97.9029 146.161 99.5027 148.257 102.354 150.531C105.206 152.804 110.045 154.475 114.127 154.619C118.209 154.763 123.794 153.665 126.848 151.396C129.902 149.127 131.581 146.309 132.449 141.003C133.318 135.696 132.949 123.556 132.058 119.557C131.167 115.558 132.239 117.409 127.104 117.011C121.97 116.613 106.26 116.776 101.25 117.169C96.2402 117.562 97.7963 119.003 97.0475 119.371M96.8803 119.312C96.8824 122.917 95.9781 136.073 96.8858 141.216C97.7926 146.36 99.4628 147.911 102.325 150.173C105.186 152.434 109.91 154.567 114.055 154.788C118.199 155.01 124.09 153.723 127.194 151.498C130.299 149.274 131.84 146.807 132.681 141.441C133.522 136.077 133.203 123.372 132.24 119.307C131.276 115.242 132.117 117.458 126.899 117.054C121.681 116.65 105.979 116.503 100.932 116.886C95.8843 117.269 97.3083 119.011 96.6158 119.353" stroke="#99D5FF" stroke-linecap="round"/>
<path fill-rule="evenodd" clip-rule="evenodd" d="M105.176 116.52L105.714 113.459L105.454 112.697L106.05 111.449L107.104 110.005L108.608 108.16L111.034 106.756L113.78 105.938L115.719 105.383L116.451 105.506L118.523 106.204L119.456 107.328L120.622 108.617L122.153 110.265L122.307 112.691L123.074 114.227L122.689 116.118L122.94 116.473L123.656 117.087L126.152 117.198L126.692 116.894L127.04 116.191L125.378 109.788L124.271 107.977L122.806 106.413L121.597 104.784L120.165 103.526L117.682 102.868L114.918 102.147L111.835 102.766L109.608 103.686L109.017 103.766L104.268 107.748L103.385 109.343L102.097 111.973L101.843 114.416L102.192 116.236L102.363 117.008L103.414 116.905L105.645 116.627" fill="#F0FBFF"/>
<path d="M105.248 116.617C105.287 115.875 105.223 113.511 105.64 112.288C106.057 111.064 106.646 110.269 107.752 109.276C108.858 108.283 110.816 106.992 112.276 106.327C113.737 105.662 115.281 105.132 116.515 105.287C117.749 105.44 118.77 106.404 119.684 107.249C120.597 108.094 121.438 109.196 121.994 110.358C122.551 111.519 122.814 113.192 123.023 114.215C123.233 115.238 122.675 116.047 123.256 116.498C123.836 116.949 125.964 117.366 126.504 116.924C127.044 116.481 126.684 114.999 126.493 113.845C126.303 112.692 125.927 111.247 125.362 110.004C124.797 108.761 123.965 107.441 123.103 106.387C122.242 105.334 121.59 104.389 120.191 103.686C118.792 102.981 116.471 102.188 114.71 102.162C112.948 102.135 110.915 102.969 109.621 103.525C108.329 104.082 107.952 104.619 106.952 105.5C105.952 106.382 104.375 107.688 103.625 108.815C102.875 109.942 102.681 110.933 102.453 112.263C102.225 113.592 101.709 116.064 102.256 116.791C102.802 117.517 105.17 116.606 105.734 116.622M105.578 116.447C105.583 115.714 104.997 113.749 105.435 112.492C105.872 111.235 107.062 109.996 108.201 108.905C109.339 107.814 110.831 106.548 112.268 105.948C113.705 105.347 115.546 105.023 116.821 105.302C118.096 105.581 119.022 106.726 119.917 107.623C120.813 108.519 121.708 109.609 122.192 110.682C122.677 111.754 122.691 113.035 122.825 114.057C122.959 115.079 122.379 116.336 122.998 116.814C123.618 117.292 125.938 117.408 126.543 116.927C127.149 116.446 126.773 115.085 126.632 113.929C126.49 112.774 126.271 111.261 125.694 109.994C125.116 108.726 124.119 107.392 123.169 106.327C122.218 105.262 121.405 104.215 119.994 103.602C118.582 102.989 116.392 102.728 114.702 102.65C113.012 102.572 111.187 102.645 109.854 103.135C108.52 103.624 107.678 104.631 106.7 105.585C105.722 106.539 104.731 107.726 103.984 108.859C103.237 109.993 102.508 111.013 102.218 112.389C101.928 113.764 101.684 116.344 102.242 117.111C102.801 117.88 104.996 117.068 105.569 116.997" stroke="#99D5FF" stroke-linecap="round"/>
<path d="M131.006 119.649C130.155 120.746 126.672 125.183 125.81 126.306M130.776 119.416C129.887 120.547 126.433 125.373 125.579 126.582" stroke="#99D5FF" stroke-linecap="round"/>
<path d="M131.445 122.457C130.76 123.428 127.903 127.192 127.139 128.148M131.241 122.258C130.542 123.169 127.671 126.848 127.016 127.772" stroke="#99D5FF" stroke-linecap="round"/>
<path d="M131.519 125.785C130.694 126.756 127.544 130.48 126.756 131.461M131.223 125.695C130.362 126.685 127.375 130.615 126.624 131.658" stroke="#99D5FF" stroke-linecap="round"/>
<path d="M131.538 128.912C130.808 129.892 127.556 133.861 126.753 134.86M131.371 128.75C130.632 129.656 127.388 133.579 126.588 134.552" stroke="#99D5FF" stroke-linecap="round"/>
<path d="M131.333 132.156C130.487 133.33 127.04 137.832 126.225 138.925M131.715 132.052C130.84 133.176 126.894 137.479 126.005 138.627" stroke="#99D5FF" stroke-linecap="round"/>
<path d="M131.745 135.444C130.876 136.434 127.4 140.203 126.486 141.161M131.486 135.287C130.597 136.316 127.267 140.355 126.36 141.369" stroke="#99D5FF" stroke-linecap="round"/>
<path d="M131.214 139.068C130.382 139.95 126.769 143.721 125.877 144.656M131.039 139.507C130.183 140.415 126.541 143.493 125.645 144.289" stroke="#99D5FF" stroke-linecap="round"/>
<path d="M130.52 142.973C129.664 143.849 126.056 147.566 125.144 148.535M130.294 143.355C129.426 144.248 125.896 147.91 124.994 148.753" stroke="#99D5FF" stroke-linecap="round"/>
<path d="M128.189 148.454C127.389 149.051 124.317 151.267 123.531 151.892M127.915 148.33C127.087 148.952 124.198 151.512 123.445 152.098" stroke="#99D5FF" stroke-linecap="round"/>
<path fill-rule="evenodd" clip-rule="evenodd" d="M111.263 132.32L109.774 131.201L109.909 131.154L108.871 128.037L108.484 126.805L108.671 126.145L109.898 124.599L111.606 123.123L112.657 122.746L115.079 122.719L117.178 122.701L118.54 122.869L119.269 123.428L120.395 123.962L120.708 124.575L121.455 125.844L121.542 128.807L121.191 129.146L120.928 130.037L119.875 131.283L117.633 132.53L118.143 141.848L117.035 143.583L116.507 144.368L115.866 144.902L114.854 145.181L114.529 145.111L113.817 144.839L113.372 143.944L113.041 133.319L113.417 132.664L112.427 131.975L110.689 131.927" fill="white"/>
<path d="M111.327 132.234C111.069 132.021 110.12 131.779 109.63 130.925C109.139 130.072 108.153 128.293 108.383 127.112C108.611 125.93 109.922 124.631 111.002 123.835C112.081 123.04 113.42 122.422 114.859 122.336C116.299 122.251 118.558 122.723 119.643 123.323C120.729 123.924 121.106 124.954 121.372 125.941C121.638 126.927 121.51 128.378 121.241 129.242C120.971 130.107 120.302 130.582 119.756 131.127C119.21 131.672 118.26 131.974 117.961 132.512C117.663 133.051 117.993 133.346 117.965 134.359C117.938 135.372 117.796 137.381 117.797 138.589C117.798 139.796 118.042 140.689 117.972 141.602C117.903 142.517 117.709 143.45 117.379 144.073C117.049 144.697 116.531 145.188 115.992 145.343C115.454 145.498 114.607 145.222 114.15 145.002C113.693 144.783 113.434 144.537 113.252 144.026C113.07 143.516 113.077 143.052 113.06 141.939C113.042 140.826 113.131 138.86 113.147 137.348C113.163 135.836 113.532 133.723 113.155 132.867C112.779 132.012 111.312 132.361 110.886 132.218M111.053 132.08C110.78 131.794 109.834 131.463 109.462 130.57C109.09 129.678 108.541 127.91 108.821 126.725C109.1 125.538 110.075 124.183 111.139 123.453C112.202 122.722 113.846 122.405 115.2 122.342C116.553 122.279 118.205 122.415 119.263 123.077C120.321 123.74 121.248 125.3 121.545 126.316C121.841 127.331 121.285 128.415 121.04 129.173C120.795 129.931 120.561 130.313 120.076 130.862C119.592 131.412 118.476 131.868 118.132 132.469C117.787 133.07 118.001 133.453 118.009 134.467C118.018 135.48 118.174 137.288 118.182 138.553C118.191 139.82 118.201 141.133 118.06 142.064C117.918 142.995 117.67 143.59 117.332 144.139C116.994 144.689 116.539 145.18 116.031 145.359C115.524 145.537 114.773 145.403 114.286 145.209C113.799 145.015 113.352 144.722 113.108 144.195C112.864 143.668 112.751 143.172 112.822 142.047C112.894 140.921 113.463 139.012 113.537 137.444C113.61 135.877 113.728 133.549 113.265 132.639C112.803 131.73 111.21 132.039 110.762 131.987" stroke="#99D5FF" stroke-linecap="round"/>
<path d="M92.6427 148.239C92.1639 148.28 91.6641 148.609 91.1645 148.65C90.9146 148.732 90.7274 148.526 90.5194 148.382C90.3737 148.32 90.1867 147.95 90.1243 147.867C90.0414 147.415 89.8131 146.53 89.8551 146.098C89.7514 145.543 90.3763 145.009 90.8967 144.989C90.9591 144.989 91.1465 145.01 91.1673 145.01C91.8125 145.133 92.4366 145.607 93.1026 145.669C93.1234 145.669 93.1443 145.669 93.1443 145.649C93.4152 145.196 93.3329 144.045 93.5414 143.572C93.5414 143.51 93.6668 142.893 93.6669 142.791C93.8128 142.482 94.0003 142.297 94.3333 142.4C94.5622 142.462 94.8536 142.504 94.8534 142.791L94.852 144.622C94.9142 144.827 95.3514 144.745 95.518 144.746C96.2676 144.417 96.9755 144.212 97.829 144.089C98.62 144.131 98.9733 144.831 98.9311 145.53C98.9517 145.9 98.5351 146.187 98.2851 146.434C98.2018 146.475 97.8687 146.619 97.7438 146.578C97.4526 146.372 97.0778 146.454 96.7239 146.474C96.7239 146.495 96.6822 146.556 96.703 146.577C97.119 147.071 97.8891 147.154 98.4092 147.483C98.7836 147.915 99.2414 148.018 99.1161 148.594C99.095 148.882 99.1156 149.19 98.8033 149.293C98.72 149.355 98.2412 149.436 98.1371 149.436C98.033 149.416 97.825 149.272 97.7418 149.169C97.0135 148.86 96.2227 148.612 95.3901 148.529L95.3888 150.216C95.3052 150.668 95.2007 151.162 94.8466 151.511C94.7217 151.531 94.3262 151.531 94.2013 151.51C94.0973 151.449 93.7437 151.099 93.6605 150.996C93.453 150.214 93.412 149.289 93.142 148.528C92.9757 148.322 92.9133 148.219 92.6427 148.239Z" fill="#99D5FF"/>
<path d="M103.376 148.248C102.897 148.288 102.397 148.617 101.898 148.658C101.648 148.74 101.461 148.534 101.253 148.39C101.107 148.328 100.92 147.958 100.858 147.876C100.775 147.423 100.546 146.539 100.588 146.107C100.485 145.552 101.11 145.017 101.63 144.997C101.692 144.997 101.88 145.018 101.901 145.018C102.546 145.142 103.17 145.615 103.836 145.678C103.857 145.678 103.878 145.678 103.878 145.657C104.149 145.205 104.066 144.053 104.275 143.58C104.275 143.519 104.4 142.902 104.4 142.799C104.546 142.491 104.734 142.306 105.067 142.409C105.295 142.471 105.587 142.512 105.587 142.8L105.585 144.63C105.648 144.836 106.085 144.754 106.251 144.754C107.001 144.426 107.709 144.22 108.562 144.098C109.353 144.139 109.707 144.839 109.664 145.538C109.685 145.908 109.268 146.196 109.018 146.442C108.935 146.483 108.602 146.627 108.477 146.586C108.186 146.38 107.811 146.462 107.457 146.482C107.457 146.503 107.416 146.565 107.436 146.585C107.852 147.079 108.622 147.162 109.142 147.491C109.517 147.923 109.975 148.027 109.849 148.602C109.828 148.89 109.849 149.199 109.537 149.301C109.453 149.363 108.974 149.445 108.87 149.445C108.766 149.424 108.558 149.28 108.475 149.177C107.747 148.868 106.956 148.621 106.123 148.538L106.122 150.224C106.038 150.676 105.934 151.17 105.58 151.519C105.455 151.54 105.059 151.539 104.935 151.519C104.831 151.457 104.477 151.107 104.394 151.004C104.186 150.223 104.145 149.297 103.875 148.536C103.709 148.33 103.647 148.227 103.376 148.248Z" fill="#99D5FF"/>
<path d="M114.109 148.256C113.63 148.297 113.13 148.625 112.631 148.666C112.381 148.748 112.194 148.542 111.986 148.398C111.84 148.337 111.653 147.966 111.591 147.884C111.508 147.431 111.279 146.547 111.321 146.115C111.218 145.56 111.843 145.026 112.363 145.006C112.425 145.006 112.613 145.026 112.634 145.026C113.279 145.15 113.903 145.624 114.569 145.686C114.59 145.686 114.611 145.686 114.611 145.665C114.882 145.213 114.799 144.061 115.008 143.589C115.008 143.527 115.133 142.91 115.133 142.807C115.279 142.499 115.467 142.314 115.8 142.417C116.029 142.479 116.32 142.52 116.32 142.808L116.318 144.638C116.381 144.844 116.818 144.762 116.984 144.762C117.734 144.434 118.442 144.229 119.295 144.106C120.086 144.148 120.44 144.847 120.397 145.546C120.418 145.917 120.001 146.204 119.751 146.451C119.668 146.492 119.335 146.636 119.21 146.594C118.919 146.388 118.544 146.47 118.19 146.491C118.19 146.511 118.149 146.573 118.169 146.594C118.585 147.087 119.355 147.17 119.876 147.5C120.25 147.932 120.708 148.035 120.582 148.611C120.561 148.899 120.582 149.207 120.27 149.31C120.186 149.371 119.708 149.453 119.603 149.453C119.499 149.432 119.291 149.288 119.208 149.185C118.48 148.876 117.689 148.629 116.856 148.546L116.855 150.232C116.772 150.685 116.667 151.178 116.313 151.528C116.188 151.548 115.793 151.548 115.668 151.527C115.564 151.465 115.21 151.115 115.127 151.013C114.919 150.231 114.878 149.305 114.608 148.544C114.442 148.339 114.38 148.236 114.109 148.256Z" fill="#99D5FF"/>
</g>
</g>
<path d="M154.473 61.3938C155.734 62.7941 157.473 64.5275 159.878 68.6475M155.223 61.7245C156.806 64.2012 158.066 66.762 159.19 68.9109M154.609 59.107C157.839 62.5601 158.513 64.1389 162.386 71.4135M155.052 58.9314C158.038 64.2019 161.047 68.5784 163.193 72.4306M156.36 57.5105C158.762 61.5614 161.196 66.5262 164.461 71.0026M155.808 57.6225C158.557 61.0669 160.567 64.6446 165.218 71.5829M157.684 55.8685C161.214 62.5313 165.418 68.1672 166.125 71.0011M156.932 55.7047C159.546 60.8246 162.709 66.2496 166.4 71.5767M157.989 55.2284C162.088 60.1312 164.642 64.873 168.134 72.0378M157.589 54.8122C160.37 58.5389 161.988 61.7826 168.563 71.6213M158.91 54.3242C161.776 56.7539 164.237 62.0665 169.416 69.7868M159.673 53.9326C162.177 57.814 165.215 63.0009 169.679 70.4289M160.754 53.4242C164.665 60.1384 169.495 66.0429 171.423 69.9169M161.132 53.3075C164.561 58.7052 167.782 64.7298 171.194 70.1648M161.645 52.2179C165.542 58.0417 170.585 64.5127 172.673 69.5694M161.86 52.468C165.199 56.562 168.276 61.6549 173.212 69.098M165.024 51.7116C167.454 57.6099 171.095 62.4135 173.023 68.1401M163.943 52.2301C165.742 55.8833 167.909 58.9601 173.97 68.0983M165.901 53.082C168.3 55.1404 169.742 58.6213 174.792 66.3471M166.519 52.4348C169.053 57.0057 171.953 62.1701 174.251 66.0087M167.131 52.505C169.784 55.2927 171.923 58.2354 175.888 64.9833M168.113 52.1385C169.951 55.2679 171.515 58.5847 175.338 64.6881M169.061 50.9666C172.075 56.111 174.232 59.4887 175.093 61.5284M169.337 51.839C171.579 55.363 173.391 58.1769 176.032 62.3005" stroke="#FFE699" stroke-width="0.5" stroke-linecap="round"/>
<path d="M172.309 69.6904C173.645 68.6681 174.177 66.6676 174.671 65.0236C175.164 63.3796 175.636 61.443 175.271 59.8263C174.909 58.2099 173.679 56.5528 172.489 55.3284C171.298 54.104 169.884 52.9491 168.128 52.4821C166.372 52.0171 163.76 52.1369 161.955 52.5372C160.149 52.9352 158.439 53.7176 157.291 54.8802C156.144 56.0412 155.514 57.9213 155.074 59.5082C154.633 61.0951 154.205 62.7809 154.649 64.4017C155.093 66.0244 156.472 67.8918 157.739 69.2366C159.005 70.5794 160.677 72.0184 162.248 72.4625C163.818 72.9086 165.03 73.5919 167.159 71.911C169.29 70.2305 174.224 65.243 175.029 62.3767C175.834 59.5124 172.11 54.672 171.99 54.7213M166.156 72.9883C167.79 73.0502 170.039 71.9012 171.474 70.842C172.909 69.7847 174.176 68.3325 174.764 66.6385C175.351 64.9444 175.325 62.3344 174.994 60.6793C174.665 59.0245 173.761 57.974 172.784 56.7088C171.804 55.4432 170.723 53.8688 169.125 53.0909C167.525 52.3146 164.932 51.7595 163.194 52.0467C161.457 52.3319 160.044 53.8288 158.703 54.8099C157.362 55.789 155.929 56.5116 155.148 57.929C154.366 59.3484 153.834 61.5205 154.01 63.3176C154.188 65.1151 155.039 67.3044 156.209 68.7129C157.377 70.123 159.482 71.0636 161.026 71.7715C162.569 72.479 164.606 72.7678 165.468 72.9631C166.33 73.1585 166.113 73.2754 166.196 72.949" stroke="#FFE699" stroke-linecap="round"/>
<path d="M151.051 52.2191C152.414 53.6835 154.293 55.4974 156.902 59.7979M151.858 52.5678C153.574 55.1538 154.944 57.8253 156.165 60.0676M151.182 49.8413C154.674 53.4532 155.408 55.0997 159.614 62.6907M151.658 49.6614C154.898 55.1623 158.157 59.7333 160.488 63.7537M153.053 48.1916C155.659 52.4202 158.305 57.5996 161.84 62.2762M152.461 48.3046C155.436 51.9046 157.618 55.6385 162.657 62.8845M154.466 46.4919C158.3 53.4444 162.85 59.3329 163.628 62.2851M153.656 46.3169C156.497 51.6588 159.928 57.3214 163.927 62.8855M154.79 45.828C159.223 50.9533 161.996 55.9015 165.793 63.3759M154.357 45.3926C157.368 49.2863 159.126 52.6705 166.251 62.9454M155.773 44.8932C158.867 47.4384 161.543 52.9797 167.156 61.0425M156.59 44.4907C159.304 48.5436 162.6 53.9578 167.443 61.7121M157.749 43.9686C161.992 50.9769 167.217 57.1487 169.313 61.1904M158.153 43.8496C161.871 49.4854 165.368 55.7722 169.068 61.4468M158.697 42.7194C162.921 48.8015 168.378 55.5639 170.653 60.8368M158.93 42.9809C162.543 47.2602 165.88 52.5769 171.229 60.3497M162.325 42.2138C164.971 48.3642 168.914 53.3836 171.02 59.3523M161.167 42.7464C163.122 46.5576 165.469 49.7715 172.038 59.3147M163.275 43.6448C165.865 45.8008 167.436 49.4306 172.91 57.4982M163.935 42.9754C166.686 47.7458 169.833 53.1357 172.326 57.1429M164.593 43.0523C167.46 45.9685 169.777 49.0428 174.078 56.0866M165.646 42.6772C167.64 45.9438 169.34 49.4036 173.486 55.776M166.657 41.4641C169.927 46.834 172.265 50.3608 173.202 52.4879M166.959 42.3733C169.39 46.0529 171.353 48.9911 174.216 53.2968" stroke="#FFE699" stroke-width="0.5" stroke-linecap="round"/>
<path d="M170.26 60.9646C171.689 59.9096 172.248 57.832 172.768 56.1251C173.288 54.4181 173.782 52.4066 173.381 50.7227C172.981 49.0392 171.65 47.3079 170.363 46.0268C169.076 44.7458 167.551 43.5357 165.662 43.039C163.772 42.5443 160.966 42.6526 159.03 43.0577C157.092 43.4604 155.26 44.2636 154.034 45.4657C152.81 46.6662 152.144 48.6179 151.681 50.2658C151.218 51.9137 150.768 53.6645 151.255 55.3531C151.742 57.0438 153.236 58.9949 154.605 60.4015C155.974 61.8062 157.779 63.3134 159.469 63.7852C161.158 64.259 162.465 64.9774 164.742 63.2423C167.02 61.5076 172.289 56.3505 173.136 53.3741C173.983 50.3998 169.953 45.3417 169.824 45.3922M163.671 64.3566C165.426 64.4311 167.835 63.2501 169.37 62.1572C170.905 61.0665 172.258 59.5638 172.878 57.8054C173.498 56.047 173.454 53.3319 173.088 51.6082C172.725 49.8849 171.747 48.7867 170.689 47.4645C169.629 46.1419 168.458 44.4976 166.736 43.6784C165.013 42.8609 162.223 42.2674 160.358 42.5552C158.494 42.841 156.985 44.3892 155.55 45.4014C154.117 46.4115 152.582 47.1541 151.751 48.6236C150.92 50.0951 150.363 52.3511 150.563 54.2216C150.765 56.0924 151.692 58.3749 152.959 59.8473C154.222 61.3214 156.489 62.3129 158.153 63.0588C159.814 63.8044 162.004 64.1175 162.931 64.3261C163.858 64.5346 163.626 64.6549 163.713 64.3159" stroke="#FFE699" stroke-linecap="round"/>
<path d="M39.4919 36.8389C40.7067 36.2995 42.5181 36.5072 43.5393 35.5949M39.5111 37.2901C40.6098 36.6045 40.8847 36.1558 43.1835 35.5114M35.4204 37.9917C36.5487 36.4238 37.8848 36.9434 42.604 33.7467M35.1261 37.4985C37.5433 36.8095 40.0392 35.3883 42.3583 34.4027M31.0182 37.8384C32.5552 36.5816 34.7578 35.7682 42.158 33.5926M30.2547 38.4507C35.222 36.4401 39.4236 34.2499 41.8539 33.0484M28.4808 38.059C31.7575 36.8217 35.305 34.7827 40.906 32.5239M27.9617 38.185C32.3464 36.1029 36.4753 34.7432 41.2822 32.0653M28.821 37.2365C30.848 35.2645 33.9401 34.7693 40.7143 31.8856M28.8059 36.2348C31.6988 35.301 34.8401 33.3267 40.6369 31.3711M29.3061 34.338C33.1319 33.4972 36.6898 30.7674 39.9993 30.1967M28.9423 35.0569C32.2605 33.3384 35.224 31.9569 39.9256 30.0964M30.4188 33.0697C33.3687 31.6882 36.186 30.3112 38.9601 28.7466M29.682 32.9542C31.9154 32.1514 33.9031 31.4978 39.3347 29.2631M30.0603 31.3795C31.3579 31.2048 33.7014 29.4633 38.7345 28.5816M30.3122 31.6945C33.6836 30.3088 36.7257 29.2648 38.5448 27.9532M31.0657 30.7595C31.8622 29.3132 34.2307 29.3197 38.4725 26.6515M30.8687 29.9905C32.821 29.2321 34.805 28.2402 37.978 26.7692M31.4367 28.1898C33.9666 28.0259 36.1741 26.5881 37.5093 25.9724M31.5771 28.3966C32.6389 27.678 33.9563 27.5185 37.0707 26.1289M32.5623 26.9086C33.6092 26.5859 34.4469 25.5853 36.4978 24.7181M32.1985 26.9432C33.4137 26.3914 34.0929 25.8375 36.2326 24.9462M32.8953 25.6578C33.3155 24.4891 34.1371 24.8433 35.6831 24.4373M32.8041 25.0418C33.381 24.6965 33.9631 24.6068 35.7494 23.8756M33.3076 23.2767C33.9488 22.9645 34.7388 22.9856 35.1787 23.2567M33.29 23.4488C33.8818 23.1801 34.5687 22.8791 35.0526 22.6593" stroke="#6965DB" stroke-width="0.3" stroke-linecap="round"/>
<path d="M43.5225 36.4928C40.3563 36.6396 36.7782 36.6985 27.7778 39.2601M43.8035 36.1425C38.2233 36.8945 32.2279 37.8016 28.4562 38.6099M28.2783 38.2849C29.352 34.1243 31.4987 28.7864 34.9274 21.2834M27.9512 38.6782C29.5986 34.048 30.9924 30.3657 34.2925 21.4514M33.9746 21.8068C37.6124 26.4479 40.9865 30.5501 43.5077 36.8055M34.692 21.7172C37.0729 25.9556 39.9579 30.5815 43.9901 36.6159" stroke="#6965DB" stroke-linecap="round"/>
<path opacity="0.6" d="M47.9996 36.8252C46.7582 37.2286 45.0098 36.8418 43.9197 37.6293M48.0268 36.3825C46.8838 36.9407 46.5697 37.351 44.2587 37.7469M52.094 36.1125C50.8325 37.5296 49.5801 36.8863 44.6456 39.5296M52.3314 36.6242C49.9002 37.0517 47.3177 38.1866 44.9523 38.9138M56.3786 36.7094C54.7496 37.781 52.5153 38.3519 45.0656 39.7255M57.1866 36.1889C52.1302 37.6484 47.8034 39.3611 45.3074 40.288M58.8797 36.7515C55.5532 37.6275 51.8808 39.2589 46.1801 40.8966M59.3996 36.6812C54.905 38.2698 50.7336 39.1786 45.766 41.3064M58.4639 37.5205C56.2835 39.2409 53.2127 39.4107 46.3025 41.5396M58.3769 38.5005C55.4561 39.1189 52.1871 40.7285 46.3259 42.05M57.6956 40.3027C53.873 40.7354 50.1202 43.0407 46.8294 43.2621M58.124 39.6373C54.7081 40.979 51.6729 42.0276 46.8913 43.3675M56.4799 41.4286C53.458 42.4786 50.5661 43.5375 47.6973 44.784M57.1878 41.6161C54.9247 42.1736 52.9166 42.6103 47.3838 44.2416M56.6584 43.1161C55.3731 43.155 52.907 44.6181 47.9009 44.9682M56.4443 42.7827C53.0103 43.794 49.9326 44.5048 48.0224 45.6013M55.6133 43.6195C54.6884 44.9514 52.3754 44.7046 47.9608 46.8802M55.7277 44.3908C53.7435 44.9334 51.7047 45.7007 48.4559 46.8154M54.9899 46.092C52.502 45.9952 50.1996 47.1755 48.8327 47.6414M54.8738 45.8759C53.7636 46.47 52.4605 46.492 49.2771 47.5331M53.7603 47.2294C52.7048 47.4382 51.7849 48.3305 49.6935 48.9694M54.1192 47.2324C52.876 47.648 52.1563 48.1201 49.9757 48.7734M53.308 48.4174C52.7789 49.5163 52.0122 49.0869 50.4608 49.3265M53.3345 49.0284C52.7359 49.3071 52.1581 49.3356 50.339 49.8684M52.6634 50.7015C52.0053 50.9413 51.2358 50.8404 50.8336 50.5308M52.6981 50.535C52.0927 50.7374 51.3911 50.9618 50.8961 51.1273" stroke="#FF9494" stroke-width="0.5" stroke-linecap="round"/>
<path opacity="0.6" d="M44.0271 36.7552C47.1349 36.9333 50.6361 37.2392 59.6882 35.651M43.7171 37.0689C49.2444 36.901 55.1931 36.6237 58.9595 36.2172M59.1003 36.5528C57.629 40.5079 54.9898 45.5043 50.8785 52.4853M59.4598 36.2018C57.3802 40.5574 55.6448 44.0129 51.5158 52.3856M51.8625 52.0708C48.7802 47.1677 45.9009 42.8178 44.0733 36.4512M51.1525 52.0854C49.2572 47.7034 46.9088 42.8916 43.5828 36.5875" stroke="#FF9494" stroke-linecap="round"/>
<path d="M38.0023 123.919C36.4979 125.055 34.62 126.639 30.306 128.681M37.608 124.637C35.0029 126.002 32.3416 127.038 30.1027 127.973M40.2701 124.251C36.5498 127.173 34.9179 127.709 27.3327 130.944M40.407 124.708C34.896 127.231 30.2743 129.852 26.2493 131.661M41.7107 126.134C37.4657 128.18 32.3071 130.178 27.5636 133.047M41.6466 125.574C37.9763 128.018 34.2368 129.714 26.92 133.751M43.2335 127.595C36.2877 130.541 30.3076 134.245 27.4217 134.706M43.4615 126.86C38.1326 129.025 32.4524 131.71 26.8243 134.931M43.8452 127.955C38.605 131.618 33.6582 133.755 26.2153 136.62M44.2945 127.592C40.3401 130.043 36.9673 131.377 26.5935 137.083M44.6672 128.951C41.9984 131.598 36.4907 133.593 28.3487 138.091M44.9919 129.744C40.9071 131.907 35.4749 134.488 27.6859 138.298M45.4055 130.866C38.3757 134.187 32.0739 138.492 28.046 140.081M45.4893 131.253C39.8134 134.206 33.5304 136.898 27.8187 139.831M46.5313 131.858C40.3902 135.241 33.5054 139.711 28.2848 141.356M46.2634 132.051C41.8948 135.027 36.5529 137.655 28.7083 141.934M46.7449 135.271C40.656 137.184 35.5539 140.4 29.6794 141.829M46.3211 134.148C42.5245 135.626 39.2709 137.521 29.6394 142.777M45.3033 136.026C43.0447 138.24 39.4507 139.378 31.3144 143.747M45.8952 136.698C41.1205 138.831 35.7227 141.276 31.6983 143.236M45.7725 137.302C42.7651 139.706 39.6475 141.585 32.5794 144.956M46.0532 138.313C42.7754 139.875 39.3344 141.148 32.9211 144.434M47.1398 139.359C41.752 141.92 38.1992 143.779 36.0919 144.461M46.2463 139.559C42.5403 141.49 39.5793 143.054 35.2413 145.331" stroke="#1B1B1F" stroke-width="0.3" stroke-linecap="round"/>
<path d="M28.1948 140.982C29.0988 142.401 31.0471 143.104 32.6434 143.738C34.2397 144.372 36.1295 145.008 37.7725 144.784C39.4149 144.562 41.1727 143.479 42.4958 142.398C43.8189 141.316 45.0919 140.007 45.7086 138.297C46.3234 136.586 46.4291 133.971 46.1855 132.138C45.9444 130.303 45.3117 128.531 44.2517 127.287C43.1932 126.044 41.3733 125.254 39.8294 124.678C38.2854 124.103 36.6419 123.53 34.9881 123.833C33.3323 124.136 31.3519 125.35 29.9024 126.497C28.4547 127.644 26.8762 129.186 26.2982 130.714C25.7183 132.24 24.9327 133.39 26.4249 135.657C27.9165 137.926 32.4632 143.273 35.251 144.323C38.0369 145.372 43.1827 142.077 43.1439 141.953M25.4374 134.564C25.235 136.187 26.1866 138.528 27.1188 140.05C28.0491 141.571 29.3875 142.96 31.0256 143.691C32.6637 144.422 35.2677 144.622 36.9461 144.434C38.6239 144.249 39.7489 143.438 41.0944 142.573C42.4403 141.706 44.1028 140.764 45.0159 139.238C45.9276 137.71 46.7043 135.172 46.5677 133.416C46.4331 131.66 45.0627 130.121 44.2002 128.7C43.3396 127.28 42.7428 125.789 41.3972 124.888C40.0497 123.987 37.9303 123.269 36.1237 123.29C34.3166 123.312 32.0609 123.972 30.5561 125.017C29.0498 126.06 27.9309 128.077 27.0923 129.555C26.2541 131.032 25.7908 133.038 25.5218 133.88C25.2529 134.723 25.1549 134.497 25.4732 134.607" stroke="#1B1B1F" stroke-linecap="round"/>
</g>
<defs>
<clipPath id="clip0_0_9467">
<rect width="179" height="226" fill="white"/>
</clipPath>
</defs>
</svg>
