<svg width="25" height="25" viewBox="0 0 25 25" fill="none" xmlns="http://www.w3.org/2000/svg">
<path d="M24.9929 12.5918C24.9944 11.7534 24.9205 10.9166 24.7719 10.0906H12.7515V14.8303H19.639C19.4976 15.5877 19.1988 16.3096 18.7605 16.9525C18.3222 17.5953 17.7534 18.1457 17.0887 18.5706V21.6461H21.198C22.4518 20.4774 23.4375 19.0675 24.0912 17.5078C24.7449 15.9481 25.052 14.2733 24.9929 12.5918Z" fill="#009EE2"/>
<path d="M12.748 24.6184C15.8545 24.7024 18.8772 23.6394 21.1997 21.6463L17.0903 18.5707C16.1008 19.1821 14.9801 19.5678 13.8131 19.6987C12.6461 19.8295 11.4635 19.702 10.3552 19.3258C9.24691 18.9497 8.24193 18.3347 7.41659 17.5276C6.59125 16.7205 5.96722 15.7426 5.59188 14.668H1.35669V17.8387C2.41818 19.8767 4.04547 21.5898 6.05694 22.787C8.06841 23.9841 10.3849 24.6182 12.748 24.6184Z" fill="#34A853"/>
<path d="M5.59161 14.6635C5.05764 13.1352 5.05764 11.48 5.59161 9.95171V6.78589H1.35641C0.464482 8.50097 0 10.3935 0 12.3125C0 14.2316 0.464482 16.1241 1.35641 17.8392L5.59161 14.6635Z" fill="#FBBC04"/>
<path d="M12.748 4.87188C14.5661 4.84335 16.3229 5.50589 17.6395 6.71656L21.283 3.20281C18.9735 1.11107 15.9147 -0.0364298 12.748 0.000882213C10.3844 0.00156421 8.0675 0.636367 6.05598 1.83442C4.04446 3.03247 2.41748 4.74662 1.35669 6.78549L5.59188 9.95624C6.08486 8.4933 7.0402 7.21619 8.32371 6.30426C9.60723 5.39234 11.1544 4.89143 12.748 4.87188Z" fill="#EA4335"/>
</svg>
